<svg width="1200" height="630" viewBox="0 0 1200 630" fill="none" xmlns="http://www.w3.org/2000/svg">
  <rect width="1200" height="630" fill="#020617"/>
  <rect x="-100" y="-100" width="800" height="400" fill="url(#paint0_linear)" opacity="0.7"/>
  <rect x="400" y="200" width="700" height="400" fill="url(#paint1_linear)" opacity="0.6"/>
  <circle cx="230" cy="210" r="110" fill="black" stroke="#f97373" stroke-width="3"/>
  <path
    d="M230 125C190 125 158 157 158 197C158 226.5 176.3 251.1 203 259.9C205.9 260.4 207 258.6 207 257.1C207 255.8 207 252.2 207 247.9C188.3 251.9 184.1 239 184.1 239C181.5 232.3 177.6 230.5 177.6 230.5C171.9 226.7 178 226.7 178 226.7C184.3 227.2 187.6 233.2 187.6 233.2C193.1 242.8 202.2 240.1 205.9 238.6C206.5 234.7 208.1 232 209.8 230.6C196.2 229.2 181.9 224 181.9 199.7C181.9 192.4 184.5 186.4 188.7 181.8C188 180.4 185.7 173.6 189.3 164.6C189.3 164.6 194.9 162.8 207 171C212.3 169.6 218.1 168.9 224 168.9C229.9 168.9 235.7 169.6 241 171C253.1 162.8 258.7 164.6 258.7 164.6C262.3 173.6 260 180.4 259.3 181.8C263.5 186.4 266.1 192.4 266.1 199.7C266.1 224.1 251.8 229.1 238.1 230.5C240.3 232.3 242.3 236.1 242.3 242.1C242.3 250.5 242.2 256.2 242.2 257.1C242.2 258.6 243.3 260.4 246.2 259.9C273 251.1 291.4 226.5 291.4 197C291.4 157 259 125 219 125H230Z"
    fill="#f4f4f5"
  />
  <defs>
    <linearGradient id="paint0_linear" x1="-100" y1="-100" x2="700" y2="300" gradientUnits="userSpaceOnUse">
      <stop offset="0" stop-color="#f97373"/>
      <stop offset="1" stop-color="#020617"/>
    </linearGradient>
    <linearGradient id="paint1_linear" x1="400" y1="200" x2="1100" y2="600" gradientUnits="userSpaceOnUse">
      <stop offset="0" stop-color="#111827"/>
      <stop offset="1" stop-color="#020617"/>
    </linearGradient>
  </defs>
</svg>


